<?xml version="1.0" standalone="no"?>
<!DOCTYPE svg PUBLIC "-//W3C//DTD SVG 20010904//EN"
 "http://www.w3.org/TR/2001/REC-SVG-20010904/DTD/svg10.dtd">
<svg version="1.0" xmlns="http://www.w3.org/2000/svg"
 width="1056.000000pt" height="1056.000000pt" viewBox="0 0 1056.000000 1056.000000"
 preserveAspectRatio="xMidYMid meet">
<metadata>
Created by potrace 1.14, written by Peter Selinger 2001-2017
</metadata>
<g transform="translate(0.000000,1056.000000) scale(0.100000,-0.100000)"
fill="#000000" stroke="none">
<path d="M3458 8005 c-3 -4 -50 -8 -104 -10 -89 -3 -163 -10 -219 -21 -35 -7
-90 -18 -95 -20 -3 0 -24 -4 -47 -9 -24 -4 -43 -11 -43 -14 0 -4 -9 -7 -20 -8
-52 -4 -247 -97 -321 -153 -42 -32 -122 -102 -131 -115 -4 -5 -25 -30 -47 -55
-23 -24 -41 -47 -41 -51 0 -4 -6 -14 -13 -21 -10 -11 -36 -57 -78 -138 -22
-42 -61 -151 -74 -206 -2 -10 -9 -37 -14 -59 -16 -65 -27 -140 -37 -245 -6
-66 -6 -310 0 -365 2 -16 7 -61 11 -100 4 -38 11 -75 16 -81 5 -6 6 -13 3 -16
-19 -19 102 -356 147 -412 5 -6 25 -35 45 -64 40 -61 116 -140 189 -197 28
-22 52 -42 55 -45 11 -11 216 -110 228 -110 7 0 20 -4 30 -9 13 -8 98 -32 122
-36 3 -1 19 -4 35 -8 117 -26 225 -36 442 -42 156 -3 306 -13 348 -21 11 -2
36 -7 55 -10 19 -3 42 -7 50 -8 8 -2 35 -9 60 -16 25 -7 50 -13 55 -14 27 -5
121 -40 133 -49 6 -5 12 -7 12 -4 0 9 191 -92 261 -139 37 -24 69 -44 73 -44
3 0 15 -8 25 -17 34 -31 50 -43 57 -43 4 0 36 -21 73 -47 36 -27 74 -52 83
-58 27 -16 258 -175 315 -217 29 -21 55 -38 58 -38 3 0 30 -18 59 -40 29 -22
58 -40 64 -40 5 0 12 -4 14 -8 4 -12 215 -152 228 -152 5 0 10 -4 10 -10 0 -5
5 -10 10 -10 6 0 29 -12 53 -27 120 -78 458 -236 503 -236 8 0 14 -4 14 -9 0
-4 10 -8 23 -8 13 0 28 -5 35 -12 7 -7 12 -9 12 -6 0 4 30 -2 68 -13 37 -11
82 -22 101 -25 35 -6 56 -10 94 -20 12 -3 36 -7 52 -9 17 -1 72 -8 124 -14
142 -17 248 -23 444 -24 97 -1 178 -3 178 -6 1 -4 2 -72 3 -153 l1 -146 -38
-4 c-21 -2 -41 0 -43 4 -3 5 -10 6 -15 2 -9 -5 -199 -9 -224 -4 -5 1 -14 1
-20 0 -12 -2 -1006 -2 -1020 1 -5 1 -14 0 -20 -1 -12 -2 -206 -2 -220 0 -5 1
-14 2 -19 1 -12 -2 -529 -3 -541 -1 -5 2 -14 1 -20 0 -12 -2 -206 -2 -220 0
-5 1 -14 1 -20 0 -32 -7 -56 -6 -61 2 -3 4 -10 6 -15 2 -9 -5 -199 -9 -224 -4
-5 1 -14 1 -20 0 -11 -2 -537 -2 -545 1 -3 1 -9 0 -15 -1 -12 -2 -206 -2 -220
0 -5 1 -14 2 -19 1 -12 -2 -529 -3 -541 -1 -5 2 -14 1 -20 0 -12 -2 -206 -2
-220 0 -5 1 -14 1 -20 0 -32 -7 -56 -6 -61 2 -3 4 -10 6 -15 2 -9 -5 -199 -9
-224 -4 -5 1 -14 1 -20 0 -32 -7 -56 -6 -61 2 -3 4 -10 6 -15 2 -14 -8 -217
-9 -225 -1 -4 3 -14 2 -24 -3 -10 -5 -21 -6 -25 -2 -4 4 -3 -2 3 -14 6 -12 7
-26 2 -34 -5 -8 -6 -19 -2 -24 10 -17 9 -46 -2 -46 -6 0 -6 -4 1 -11 8 -8 8
-20 3 -35 -6 -14 -6 -26 0 -29 5 -3 6 -15 1 -28 -5 -12 -5 -31 -1 -42 4 -11 3
-25 -2 -32 -5 -7 -5 -14 1 -17 6 -4 7 -16 2 -29 -5 -12 -5 -31 -1 -42 4 -11 3
-28 -2 -37 -5 -10 -5 -18 -1 -18 9 0 8 -98 0 -107 -3 -3 -2 -16 3 -29 6 -14 6
-26 -1 -29 -5 -4 -6 -11 -2 -18 10 -16 10 -57 0 -57 -4 0 -3 -8 2 -18 6 -11 6
-24 0 -35 -6 -9 -6 -17 -2 -17 5 0 8 -12 7 -27 -1 -16 -3 -28 -4 -28 -1 0 -3
-10 -4 -22 -2 -13 0 -23 4 -23 8 0 6 -32 -3 -47 -4 -6 -3 -14 2 -18 6 -3 7
-15 2 -28 -5 -12 -5 -31 -1 -42 4 -11 3 -25 -2 -32 -5 -7 -5 -14 1 -17 7 -4 7
-15 1 -30 -5 -13 -7 -26 -5 -28 3 -2 6 -15 8 -29 l4 -24 2501 -2 c1603 -2
2511 1 2528 7 18 7 23 7 18 -2 -4 -6 -3 -8 3 -5 5 3 32 9 59 13 27 3 58 8 69
10 11 3 36 7 55 10 19 3 59 12 87 20 29 9 54 15 55 14 6 -3 116 43 183 76 106
53 125 64 125 75 0 5 3 8 8 7 9 -4 73 45 120 91 114 114 228 310 267 461 19
71 34 142 40 180 3 25 8 52 10 60 21 77 21 423 0 566 -2 16 -6 45 -9 64 -3 19
-15 71 -26 115 -12 44 -23 87 -25 95 -2 8 -4 16 -5 18 -2 1 -3 5 -5 10 -3 14
-26 67 -41 96 -8 16 -14 35 -14 43 0 7 -4 13 -10 13 -5 0 -10 4 -10 10 0 8
-17 36 -90 145 -18 27 -122 128 -174 169 -90 71 -289 162 -421 192 -42 10 -71
15 -97 17 -16 1 -28 4 -28 7 0 3 -12 5 -27 6 -16 0 -62 4 -103 8 -41 4 -147 9
-235 11 -139 2 -286 11 -335 20 -18 3 -122 19 -132 19 -3 1 -10 4 -14 9 -4 4
-17 7 -28 7 -23 0 -152 45 -231 81 -27 12 -97 51 -155 86 -58 35 -114 69 -125
76 -11 7 -22 14 -25 17 -3 3 -54 39 -115 80 -60 40 -157 106 -215 145 -58 39
-154 105 -215 145 -60 41 -112 77 -115 81 -3 3 -9 8 -15 10 -5 2 -89 56 -185
120 -96 64 -204 133 -240 153 -176 99 -407 199 -535 232 -5 1 -37 10 -69 19
-33 8 -69 17 -80 20 -12 2 -21 4 -21 5 0 2 -36 9 -80 15 -22 3 -69 10 -105 15
-36 6 -81 12 -100 15 -70 9 -279 18 -440 18 l-165 1 0 147 c0 81 3 151 7 154
3 4 1130 6 2503 6 1901 1 2495 3 2492 12 -2 7 0 20 5 30 5 9 5 17 1 17 -4 0
-8 11 -8 25 0 14 4 25 9 25 5 0 4 6 -2 13 -5 6 -6 21 -2 32 4 11 4 30 -1 41
-4 12 -3 26 3 32 6 6 6 12 -1 16 -7 4 -7 15 -1 30 5 13 7 26 4 29 -9 8 -10 77
-2 77 5 0 4 8 -1 18 -6 11 -6 24 0 35 6 9 6 17 2 17 -9 0 -8 98 0 107 3 3 2
16 -3 29 -6 14 -6 26 1 29 5 4 6 11 2 18 -10 16 -10 57 0 57 4 0 3 8 -2 18 -6
11 -6 24 0 35 6 9 6 17 2 17 -10 0 -10 41 0 57 4 7 3 14 -2 18 -6 3 -7 15 -2
28 5 12 5 32 0 44 -5 13 -4 25 2 28 5 4 6 11 2 18 -10 16 -10 57 0 57 4 0 3 8
-2 18 -6 11 -6 24 0 35 6 10 6 17 1 17 -10 0 -8 42 2 58 3 6 -7 9 -24 8 -17
-1 -30 1 -30 6 0 4 -11 3 -25 -2 -15 -6 -27 -6 -30 0 -3 6 -15 6 -30 0 -15 -6
-27 -6 -30 0 -4 6 -13 7 -23 1 -11 -6 -24 -6 -35 0 -9 6 -17 6 -17 2 0 -4 -11
-8 -25 -8 -14 0 -25 3 -25 7 0 4 -11 3 -25 -2 -15 -6 -27 -6 -30 0 -3 6 -15 6
-30 0 -15 -6 -27 -6 -30 0 -4 6 -13 7 -23 1 -11 -6 -24 -6 -35 0 -9 6 -17 6
-17 2 0 -4 -11 -8 -25 -8 -14 0 -25 3 -25 7 0 4 -11 3 -24 -2 -13 -5 -27 -6
-30 -3 -7 7 -86 10 -86 3 0 -3 -11 -5 -25 -5 -14 0 -25 4 -25 8 0 4 -8 4 -17
-1 -10 -5 -27 -6 -38 -2 -11 4 -29 4 -41 0 -11 -5 -28 -4 -37 1 -9 6 -17 6
-17 2 0 -4 -11 -8 -25 -8 -14 0 -25 4 -25 8 0 4 -8 4 -17 0 -21 -10 -65 -9
-82 1 -6 4 -11 4 -11 -1 0 -4 -11 -8 -25 -8 -14 0 -25 4 -25 8 0 4 -8 4 -17
-1 -10 -5 -27 -6 -38 -2 -11 4 -29 4 -41 0 -11 -5 -28 -4 -37 1 -9 6 -17 6
-17 1 0 -9 -53 -8 -69 3 -6 3 -11 3 -11 -2 0 -4 -11 -8 -25 -8 -14 0 -25 4
-25 8 0 4 -8 4 -17 -1 -10 -5 -27 -6 -38 -2 -11 4 -29 4 -41 0 -11 -5 -28 -4
-37 1 -9 6 -17 6 -17 2 0 -4 -11 -8 -25 -8 -14 0 -25 4 -25 8 0 4 -8 4 -17 0
-21 -10 -65 -9 -82 1 -6 4 -11 4 -11 -1 0 -4 -11 -8 -25 -8 -14 0 -25 4 -25 8
0 4 -8 4 -17 -1 -10 -5 -27 -6 -38 -2 -11 4 -29 4 -41 0 -11 -5 -28 -4 -37 1
-9 6 -17 6 -17 1 0 -9 -53 -8 -69 3 -6 3 -11 3 -11 -2 0 -4 -11 -8 -25 -8 -14
0 -25 4 -25 8 0 4 -8 4 -17 -1 -10 -5 -27 -6 -38 -2 -11 4 -29 4 -41 0 -11 -5
-28 -4 -37 1 -9 6 -17 6 -17 2 0 -4 -11 -8 -25 -8 -14 0 -25 4 -25 8 0 4 -8 4
-17 0 -21 -10 -65 -9 -82 1 -6 4 -11 4 -11 -1 0 -4 -11 -8 -25 -8 -14 0 -25 4
-25 8 0 4 -8 4 -17 -1 -10 -5 -27 -6 -38 -2 -11 4 -29 4 -41 0 -11 -5 -28 -4
-37 1 -9 6 -17 6 -17 1 0 -9 -53 -8 -69 3 -6 3 -11 3 -11 -2 0 -4 -11 -8 -25
-8 -14 0 -25 4 -25 8 0 4 -8 4 -17 -1 -10 -5 -27 -6 -38 -2 -11 4 -29 4 -41 0
-11 -5 -28 -4 -37 1 -9 6 -17 6 -17 2 0 -4 -11 -8 -25 -8 -14 0 -25 4 -25 8 0
4 -8 4 -17 0 -21 -10 -65 -9 -82 1 -6 4 -11 4 -11 -1 0 -4 -11 -8 -25 -8 -14
0 -25 4 -25 8 0 4 -8 4 -17 -1 -10 -5 -27 -6 -38 -2 -11 4 -29 4 -41 0 -11 -5
-28 -4 -37 1 -9 6 -17 6 -17 2 0 -10 -103 -8 -119 1 -6 4 -11 3 -11 -1 0 -10
-41 -10 -56 0 -5 3 -16 2 -24 -3 -7 -4 -24 -4 -36 0 -14 6 -26 5 -29 0 -3 -6
-15 -6 -30 0 -14 5 -25 6 -25 2 0 -4 -11 -7 -25 -7 -14 0 -25 4 -25 8 0 4 -8
3 -18 -2 -11 -6 -24 -6 -34 0 -10 6 -19 6 -23 0 -3 -7 -15 -7 -30 -1 -15 6
-27 6 -30 0 -3 -6 -15 -6 -30 0 -14 5 -25 6 -25 2 0 -4 -11 -7 -25 -7 -14 0
-25 4 -25 8 0 4 -8 3 -18 -2 -11 -6 -24 -6 -34 0 -10 6 -19 6 -23 0 -3 -7 -15
-7 -30 -1 -15 6 -27 6 -30 0 -3 -6 -15 -6 -30 0 -14 5 -25 6 -25 2 0 -4 -11
-7 -25 -7 -14 0 -25 4 -25 8 0 4 -8 3 -18 -2 -11 -6 -24 -6 -34 0 -10 6 -19 6
-23 0 -3 -7 -15 -7 -30 -1 -15 6 -27 6 -30 0 -3 -6 -15 -6 -30 0 -14 5 -25 6
-25 2 0 -4 -11 -7 -25 -7 -14 0 -25 4 -25 8 0 4 -8 3 -18 -2 -11 -6 -24 -6
-34 0 -10 6 -19 6 -23 0 -3 -7 -15 -7 -30 -1 -15 6 -27 6 -30 0 -3 -6 -15 -6
-30 0 -14 5 -25 6 -25 2 0 -4 -11 -7 -25 -7 -14 0 -25 4 -25 8 0 4 -8 3 -18
-2 -11 -6 -24 -6 -34 0 -10 6 -19 6 -23 0 -3 -7 -15 -7 -30 -1 -15 6 -27 6
-30 0 -3 -6 -15 -6 -30 0 -15 6 -25 6 -25 0 0 -5 -12 -5 -30 0 -17 5 -32 5
-35 0 -3 -5 -16 -5 -30 0 -14 5 -25 6 -25 1 0 -10 -43 -9 -51 2 -3 4 -8 5 -11
2z"/>
</g>
</svg>
